<?xml version="1.0" encoding="UTF-8"?>
<svg version="1.1" viewBox="0 0 2048 607" width="1052" height="312" xmlns="http://www.w3.org/2000/svg">
<path transform="translate(614,77)" d="m0 0h16v342h-64l-1-23-10 9-15 9-13 5-18 4-15 1-18-2-16-4-14-6-11-7-10-8-11-11-10-15-8-16-5-16-3-16-1-10v-20l3-22 6-20 8-16 7-11 11-12 7-7 15-10 15-7 15-4 15-2h14l19 3 12 4 15 8 11 9 1-73 3-14 4-10 7-10 10-10 14-8 9-3zm-111 171-14 3-10 5-8 6-8 11-5 12-2 11v13l3 14 4 9 6 9 9 8 12 6 8 2h20l13-4 11-7 7-7 6-10 4-11 1-6v-20l-4-14-6-10-7-8-11-7-12-4-7-1z" fill="#030000"/>
<path transform="translate(1199,182)" d="m0 0h13l16 2 17 5 16 8 11 8 10 9 8 9 9 14 7 15 6 21 2 14 1 19-2 21-5 21-8 19-9 14-9 11-11 10-14 9-16 7-16 4-17 2-17-1-17-4-12-5-12-7-9-8-1 78-3 12-8 15-9 10-10 7-11 5-15 3h-12l-1-342 1-1h64v24l11-9 10-7 16-7 17-4zm-11 66-16 4-10 6-8 7-7 11-4 11-2 12 1 16 4 13 5 9 8 9 11 7 13 4h21l15-5 11-8 6-7 7-14 2-8v-24l-5-15-7-11-9-8-12-6-14-3z" fill="#020000"/>
<path transform="translate(787,182)" d="m0 0h15l18 2 17 4 19 8 14 9 13 11 9 10 9 14 8 17 5 18 2 13v31l-1 2-173 1v6l7 14 8 9 11 7 11 4 12 2 14-1 13-4 10-6 13-9 13-5 6-1h51l-2 9-9 19-10 14-11 12-14 11-16 9-16 6-19 4-20 2-18-1-17-3-21-7-16-9-10-8-6-5v-2h-2l-9-11-9-14-8-19-4-17-2-16v-16l3-19 5-16 6-14 7-11 7-9 9-10 10-9 10-7 14-8 16-6 19-4zm1 60-13 3-12 6-10 9-7 11-1 6 3 1h93l3-2-1-5-6-10-8-8-12-7-16-4z" fill="#020000"/>
<path transform="translate(1011,77)" d="m0 0h18v346h-70v-293l3-13 8-15 10-11 14-9 12-4z" fill="#010000"/>
<path transform="translate(222,182)" d="m0 0h105l5 3 2 3v6l-14 25-16 27-14 25-8 13-3 3h-9l-6-8-16-28-15-26-14-24-4-7v-6l5-5z" fill="#BE2F31"/>
<path transform="translate(65,182)" d="m0 0h104l5 2 3 5-1 6-11 20-14 24-15 26-12 20-3 2h-8l-5-6-45-78-5-9v-6l4-5z" fill="#BE2F31"/>
<path transform="translate(142,322)" d="m0 0h107l5 3 2 7-9 17-16 27-14 25-14 23-3 3h-8l-6-7-14-25-16-27-13-23-6-10v-8z" fill="#BE2F31"/>
<path transform="translate(1921,212)" d="m0 0h9l9 3 8 7 1-3 10-6 4-1h10l10 4 5 6 2 5 1 52-1 1h-12l-1-48-3-6-4-2h-11l-6 4-3 6-1 46h-12l-1-2v-43l-2-7-5-4h-11l-5 3-4 5-1 4-1 44h-12v-66l1-1h10l2 7 8-6z" fill="#BE2F31"/>
<path transform="translate(1521,324)" d="m0 0h11l1 1-1 37 10-8 5-2h16l10 5 7 8 4 11v19l-4 11-7 8-7 5-9 2-11-1-8-4-5-5-1 7-1 1h-10l-1-1v-93zm27 38-8 4-6 8-2 8v8l3 10 7 8 6 2h8l7-3 5-5 4-9v-13l-3-8-7-8-6-2z" fill="#C03638"/>
<path transform="translate(1438,212)" d="m0 0h9l11 4 5 4 6 10 2 6 1 13-2 11-5 10-7 7-9 4-9 1-9-2-8-5-3-2v29h-12l-1-1v-87l1-1h11l1 5v4l7-6 6-3zm-4 11-6 3-6 7-2 5-1 12 2 9 6 8 5 3 10 1 8-3 7-8 2-6v-14l-4-10-6-5-5-2z" fill="#C03537"/>
<path transform="translate(1846,212)" d="m0 0h10l11 4 6 5 6 12 1 5v14h-48l4 10 4 5 7 3h10l7-3 6-4 7 6-1 4-9 6-7 2h-17l-10-4-5-5-4-5-4-10v-20l4-11 7-8 10-5zm-2 11-6 4-4 5-2 6v4h36l-1-8-6-9-4-2z" fill="#BE2F31"/>
<path transform="translate(1467,352)" d="m0 0h18l9 4 5 6 3 8v49h-12l-1-7-7 6-4 2-12 1-9-3-5-4-4-9v-9l4-8 8-5 9-2 20-2-1-10-5-5-2-1h-11l-7 4-3 5-10-5 2-5 4-5 7-4zm18 37-16 2-6 3-3 4 1 7 6 5h11l7-4 4-7 1-9z" fill="#BE2F31"/>
<path transform="translate(1668,212)" d="m0 0h10l10 3 6 4 5 10v51h-11l-1-5 1-3-9 7-10 3-10-1-8-5-5-8-1-9 3-8 5-5 7-3 13-2h14l-1-10-3-5-4-2h-13l-5 3-3 5-9-3-2-2 4-6 7-6zm13 38-15 2-6 3-2 2v8l5 5 2 1h10l8-5 4-8v-8z" fill="#BE2F31"/>
<path transform="translate(1758,352)" d="m0 0h19l10 5 5 7 1 3v52h-11l-2-6-8 6-8 2-11-1-8-5-4-6-1-3v-11l3-6 6-5 12-3 9-1h11l-1-10-3-5-5-2h-11l-6 4-4 5-9-5 2-5 5-6zm19 37-16 2-7 3-2 3v6l3 5 4 2h11l6-4 5-8v-9z" fill="#BE2F31"/>
<path transform="translate(1506,212)" d="m0 0h10l10 3 7 6 3 6v53h-11l-1-7-8 6-4 2-9 1-9-2-7-5-4-8v-11l3-6 6-5 10-3 22-2-1-10-4-5-2-1h-13l-5 3-4 5-9-3-1-3 4-6 6-5 5-2zm12 38-15 2-6 3-2 3v6l5 6 2 1h10l7-4 4-5 2-7-1-5z" fill="#BE2F31"/>
<path transform="translate(1741,212)" d="m0 0h10l9 2 9 6 6 8 3 8 1 4v14l-4 12-9 10-8 4-4 1h-16l-10-4-7-6-5-9-2-6-1-11 3-14 6-9 7-6 7-3zm-1 11-7 4-5 7-2 7v12l4 10 7 6 5 2h9l8-4 5-6 2-5 1-12-2-9-4-6-6-5-3-1z" fill="#BE2F31"/>
<path transform="translate(1580,213)" d="m0 0h13l8 11 8 13 4-4 11-17 3-3h12l-1 4-11 16-8 11 1 5 14 20 7 11h-14l-11-15-6-9h-2l-10 16-6 8h-14l7-11 13-18 2-3-1-5-14-20-5-7z" fill="#BE2F31"/>
<path transform="translate(1696,352)" d="m0 0h18l9 4 6 5 3 5v2l-10 5-7-8-5-2h-10l-7 4-4 5-3 12 1 10 4 9 5 4 4 2h11l8-4 3-5 5 1 6 4-4 6-7 6-7 3-13 1-12-3-9-7-5-8-3-10v-13l3-10 5-8 8-7z" fill="#BE2F31"/>
<path transform="translate(1427,323)" d="m0 0h13l1 1v10l-11 1-3 2-1 6v9l15 1v10h-16v56h-11l-1-1v-55h-12l-1-1v-9h13v-16l3-7 6-5z" fill="#BE2F31"/>
<path transform="translate(1813,352)" d="m0 0 11 1v8h2l2-4 5-4 2-1h12v12h-10l-8 4-3 5-1 13v32l-1 1h-11l-1-1v-65z" fill="#C13B3D"/>
<path transform="translate(1622,352)" d="m0 0h12v12h-9l-7 3-4 5-1 2-1 45h-12v-66h11l1 7 8-7z" fill="#BE2F31"/>
<path transform="translate(1647,352)" d="m0 0 12 1v65l-1 1h-11l-1-1v-65z" fill="#C13A3C"/>
<path transform="translate(1556,213)" d="m0 0h11l1 1v65l-1 1h-11l-1-2v-64z" fill="#C33F41"/>
<path transform="translate(1663,187)" d="m0 0 7 1 11 5 4-1 1-4h9l-1 7-3 5-4 3h-9l-11-5-5 1-2 4h-8l1-8 4-6z" fill="#BE2F31"/>
<path transform="translate(1646,324)" d="m0 0h12l1 1v12l-2 1h-10l-1-1z" fill="#BE2F31"/>
<path transform="translate(1555,185)" d="m0 0h13v13h-13z" fill="#BE2F31"/>
</svg>
