<?xml version="1.0" encoding="UTF-8"?>
<svg version="1.1" viewBox="0 0 2048 484" width="782" height="185" xmlns="http://www.w3.org/2000/svg">
<path transform="translate(127,80)" d="m0 0h309l1 1v117l-5 6h-2v2h-2l-2 4-9 9h-2l-2 4-7 7h-2l-2 4-3 1-1 3h-2v2h-2l-1 3h-2l-2 4-3 1-1 3h-2v2h-2l-1 3h-2l-1 3h-2v2h-2l-1 3h-2l-2 4-4 4h-2l-2 4-9 9h-2v2l-2 1 2 4 5 4 7 8 5 5 6 5 7 8 58 58v58l-1 1h-57l-3-2v-2l-4-2-131-131h-45l-34 34-1 67-1 35-1 1h-80v-140l81-81 140-1 53-53-192-1v14l-82 82v-131l2-3h2l2-4 7-6 6-7 8-7 7-7 7-8z" fill="#FEFEFE"/>
<path transform="translate(877,80)" d="m0 0h282l8 7 68 68v209l-74 74-2 1h-57l-225-1v-316l7 6 75 75v154l116-1 51-1 26-26 1-7v-130l-7-8-20-20-167-1-22-22-2-1v-2l-4-2-54-54z" fill="#FEFEFE"/>
<path transform="translate(836,80)" d="m0 0h1v116l-7 8-54 54 2 4 58 58 1 2v115l-1 1-358 1-1-1v-81l4-1h222l50-1-21-21-2-1v-2h-2l-6-7-5-4v-2h-2l-6-7-5-5-6-5-82-1v-82l81-1 8-7 95-95h2l2-4 9-9h2l1-3h2v-2h2l1-3h2v-2l3-3h2l2-4z" fill="#FEFEFE"/>
<path transform="translate(1633,80)" d="m0 0 2 1v115l-7 8-53 53h-2l1 4h2l19 19v2l4 2 1 3 4 2 1 3 3 1v2h2l7 8 18 18v117l-358 1-1-1v-81l4-1h217l54-1-54-54-82-1-1-1v-80l1-1 80-1 5-3 131-131z" fill="#FEFEFE"/>
<path transform="translate(1675,357)" d="m0 0h359v81l-358 1-1-1z" fill="#EE7A0B"/>
<path transform="translate(477,80)" d="m0 0h318l-6 7-75 75h-237z" fill="#328D9D"/>
<path transform="translate(1592,79)" d="m0 0v3l-80 80h-236v-82z" fill="#328D9D"/>
</svg>
