<?xml version="1.0" encoding="UTF-8"?>
<svg version="1.1" viewBox="0 0 2048 1075" width="1200" height="630" xmlns="http://www.w3.org/2000/svg">
<path transform="translate(1361,174)" d="m0 0h34l31 3 36 6 25 6 25 7 18 6 20 7 20 8 16 8 21 10 19 11 9 5 13 8v2l4 1 14 10 5 3v2l5 2 13 11 8 6v2l4 2 11 10 8 7 5 5 2 4 4 2 5 7 5 4 6 8 4 4v3l4 2 4 5 3 5 9 12 4 7 6 9 6 10 5 10v3h2l3 8 6 13 4 12 3 12 3 8 2 11 2 9 2 8 1 9v12l1 9v19l-1 21-2 10-1 9-7 28-9 26-12 24-3 4-1 4h-2l-1 4-7 11-8 12-8 11-4 6h-2l-2 4-5 7h-2v2l-5 5-12 13-15 15h-2l-1 3-8 6-5 5-11 9-8 6-9 7-8 6-5 3-14 9-13 8-14 8-28 14-15 7-13 5-12 5-35 12-48 12-28 5-24 3-27 1h-22l-25-2-27-4-26-6-26-8-25-10-25-12-14-8-24-16-16-12-14-12-12-11-14-14-7-8-13-16-14-19-12-20-15-28-10-23-9-25-8-30-5-27-3-26v-53l3-25 5-26 7-26 7-21 13-30 15-30 10-17 2-3 4-2 6-9 11-14 11-12 9-10 13-13 8-7 13-11 12-9 21-14 15-9 23-12 26-11 24-8 24-6 30-5 16-2z" fill="#6DE0FE"/>
<path transform="translate(1080,337)" d="m0 0 9 1 4 5 4 7 9 6 10 6 6 5 11 7 10 9 10 10 10 7 14 6 2 2v8l7 1 9 1 4 2-10 2-20 5-10 4h-2v2l-9 4-13 9-4 2-2 4-10 10-3 5-5 5-8 14-7 19-3 15v30l4 19 6 15 5 10 2 1 2 5 2 1 4 7 3 2 3 5 6 6 3 1 5 5 4 2 4 4 16 8 10 4 18 4 7 1h20l18-3 18-6 15-8 11-8 10-9 4-4 1-3 5-5 8-11 4-10h2l1-7 3-6 4-18 1-8 1-19 6-2 4-1 8 9 8 11 8 7 23 11 8 6 17 8 10 6 15 6 7 3 8 7 4 6 5-1 2-1 2 34 3 6 7 6 3 1h11l6-3 6-7 1-2v-64l1-2h50l5 6v3h2l9 11v3l3 1 4 5v3l3 1v3l4 2v3l3 1 4 5v3l4 2 3 4v3l4 2 3 4v3h2v2l4 2 5 5 3 1h9l7-3 5-5 3-6-1-9-5-9-10-12-8-10-22-28-2-4 16-7 11-7 14-14 6-12 3-10 3 2 1 10 2 2 5 2 8 15 4 2 3-4 3-6 2 1 4 14 2 10v26l-2 8v8l2 6 1-2 3 1 3-4 1 2 3-3 1 2 2-3h2l1-3 3 6 2 5 2 18 2 3-2 12-4 15-1 1-2 12-2 9-2 3-2 7-3 9-5 10-2 2-4 11-4 6-4 10-2 6-3 7-2 5-5 7-2 5-8 11-6 8-3 5-5 5-11 12-8 6-7 6-13 8-21 11-18 8-12 6-17 6-19 7-41 12-16 3-8 2-44 5h-50l-27-3-21-4-28-7-25-9-21-9-16-8-21-12-20-14-9-7-13-11-11-10-8-7-18-18-9-11-5-5-10-13-12-20-15-28-10-23-9-25-8-30-5-27-3-26v-53l3-25 5-26 7-26 7-21 13-30 10-20 3-1z" fill="#066EF0"/>
<path transform="translate(1201,241)" d="m0 0 3 1 5 6 11 5 7 3 9 7 5 5 4 6 2 9 9 11 8 9 6 5 3 1 6 7 4 2 4 4 8 4 7 6 5 5 11 7 8 7 6 5 14 7 16 9 5 5v2l5 2 5 5 9 6v2l10 3 8 4 15 2 7 4 1 2 6 2 18 1 5 3 1 2v8l9-3 26-1 29 1 11 1v1l-53 1-11 2-5 5-4 7-1 31v148l-2-2-1-15-2 2-5-1-4-6-8-7-17-6-22-12-12-6-9-6-19-9-10-9-12-16-2-2-4 1-5 2-2 26-5 21-3 7-1 3h-2l-3 10-8 11-4 5h-2l-1 4-11 11-14 10-15 8-18 6-18 3h-20l-17-3-16-5-16-8-6-4v-2l-4-1-5-4v-2l-4-1-8-8v-3l-4-2-3-4v-3l-3-1-1-5-3-1-8-17-5-16-2-11v-30l4-18 6-16 8-14 4-5h2l1-4 5-5 5-6 8-7 14-10 8-2v-2l15-6 17-4 8-1-6-2h-8l-5-2v-8l-20-10-13-12-9-9-14-9-9-7-12-7-5-4-6-10-9-3 2-4 10-13 12-13 19-19 8-7 14-11 19-13 5-3h3l1-2 11-6 6-1 6-3z" fill="#02B2FE"/>
<path transform="translate(1201,421)" d="m0 0h16l17 3 16 5 16 8 13 9 4 3v2l4 2 11 12 10 15 8 18 4 16 2 16v12l-1 16-4 15-3 7-1 3h-2l-3 10-8 11-4 5h-2l-1 4-11 11-14 10-15 8-18 6-18 3h-20l-17-3-16-5-16-8-6-4v-2l-4-1-5-4v-2l-4-1-8-8v-3l-4-2-3-4v-3l-3-1-1-5-3-1-8-17-5-16-2-11v-30l4-18 6-16 8-14 4-5h2l1-4 5-5 5-6 8-7 14-10 8-2v-2l15-6 8-2z" fill="#FAFCFD"/>
<path transform="translate(1472,426)" d="m0 0h94l19 3 16 6 13 8 5 4v2h2l7 10 5 10 4 17v19l-3 14-4 10-8 11-9 9-16 9-10 3 22 28 8 10 13 16 5 9 1 9-4 8-6 5-6 2h-9l-6-3-4-5-2-1v-2h-2l-4-7-3-2-4-7-3-2-3-5-4-4-2-4-2-1-1-3-2-1-3-5-4-4-3-5-6-7v-2h-2l-4-7-1-1-50-1v66l-4 6-7 6-3 1h-11l-6-3-7-8-1-3v-164l1-31 5-8 6-4z" fill="#FDFDFD"/>
<path transform="translate(784,425)" d="m0 0h72l19 2 19 5 16 7 13 8 13 11 10 11 8 13 7 15 4 15 2 14v20l-3 18-5 15-9 17-10 13-10 10-14 10-16 8-15 5-14 3-9 1h-81l-6-3-5-5-3-7v-191l4-8 8-6zm22 36v150h46l17-2 16-5 12-7 10-9 7-8 7-14 4-14 1-7v-18l-3-15-5-13-7-11-12-12-13-8-14-5-11-2z" fill="#032771"/>
<path transform="translate(298,425)" d="m0 0h133l8 3 5 6 2 4v9l-3 6-7 6-3 1-113 1v56h92l11 2 5 5 3 4 1 10-3 7-7 6-3 1-99 1-1 58h111l8 2 7 6 3 8-1 8-4 6-5 4-3 1h-140l-8-4-4-5-3-8v-186l3-9 8-7z" fill="#032771"/>
<path transform="translate(1195,460)" d="m0 0h24l15 4 16 8 3 2v2l4 2 7 6 7 10 2 1 4 10 5 15 1 8v17l-4 17-7 14-9 12-6 7-9 5-16 8-11 3-7 1h-14l-18-4-10-4-11-7-6-4-5-5-3-5-4-4-3-6-3-5-5-18-1-6v-16l3-15 6-15 8-11 1-3 6-5 1-2 21-12 13-4z" fill="#066EF1"/>
<path transform="translate(1637,511)" d="m0 0 3 2 1 10 2 2 5 2 8 15 4 2 3-4 3-6 2 1 4 14 2 10v26l-2 8v8l2 6 1-2 3 1 3-4 1 2 3-3 1 2 2-3h2l1-3 3 6 2 5 2 18 2 3-2 12-4 15-1 1-2 12-2 9-2 3-2 7-3 9-5 10-2 2-4 11-4 6-1 4h-2l-1-9 1-1v-8l-1-6 1-3-4-10-1-2-1-6-5-8-1-2-3 1-3 3-5 3-2 2h-4l-2 3-7 1-3-5-1-4-9-1-9-4-25-12-12-6-19-8-15-3-16-8-6-7-6-4-5-3-2-2-1 6-2-1v-55l1-2h50l5 6v3h2l9 11v3l3 1 4 5v3l3 1v3l4 2v3l3 1 4 5v3l4 2 3 4v3l4 2 3 4v3h2v2l4 2 5 5 3 1h9l7-3 5-5 3-6-1-9-5-9-10-12-8-10-22-28-2-4 16-7 11-7 14-14 6-12z" fill="#03B3FE"/>
<path transform="translate(51,422)" d="m0 0h21l20 3 21 7 15 8 9 8 2 5v10l-4 7-6 5-3 1h-10l-26-13-13-4-5-1h-23l-11 4-8 6-4 7-1 3v11l3 8 7 6 12 6 24 7 25 7 13 5 12 6 9 7 8 8 7 14 2 9v22l-3 12-7 14-9 10-9 7-12 6-13 4-12 2h-29l-17-3-16-5-16-7-4-2v-43l6 2 15 10 17 8 16 4 8 1h14l16-4 10-7 4-6 1-3v-15l-3-6-5-5-14-7-20-6-26-7-19-7-14-8-6-5v-83l9-8 14-8 15-5z" fill="#032671"/>
<path transform="translate(1714,685)" d="m0 0 4 3 3 8 5 11v10l2-1-2 5-5 9-7 10-5 8h-2l-2 5h-2v2h-2l-2 5-11 12-6 7-8 7-9 9 9-4 5-1-5 5-13 9-6 4-14 9-13 8-14 8-28 14-15 7-13 5-12 5-35 12-48 12-28 5-24 3-27 1h-22l-25-2-27-4-26-6-26-8-25-10-25-12-14-8-24-16-16-12-14-12-12-11-14-14-7-8-13-16 1-2 9 10 7 8 17 17 11 9 12 11 13 10 15 10 11 7 18 10 16 8 28 11 18 6 24 6 21 4 27 3h50l44-5 28-6 24-7 24-8 21-8 10-4 9-4 29-14 17-10 5-2 2-4 13-10 10-11 2-3h2l2-5 6-8 8-11 3-6 5-7 3-10 2-2 3-10 5-6 4-3h2v-2l6-4 5-5 5-4 5-5h2v-2l4-4h2l1-3h2l1-2 5-5z" fill="#56B2FD"/>
<path transform="translate(595,424)" d="m0 0h12l6 3 6 7 2 8v185l-2 10-4 6-7 4-4 1h-7l-8-4-6-7-1-3v-197l4-7 5-4z" fill="#032671"/>
<path transform="translate(1512,459)" d="m0 0h16l36 1 14 4 11 7 6 8 4 11v15l-4 10-6 8-7 6-12 5-11 2h-62l-2-1v-72l1-3z" fill="#01B2FE"/>
<path transform="translate(1763,599)" d="m0 0 3 1v9l3 15-1 7-3 12-7 19-2 8v3l3-6h2v-2h2l2-6 1-2h2l2-6 6-11h2l1-5 2 1 2-3 1 1 2-6 2 1 2-3 1 3 2-6h2l1-2h2v6l-6 18-1 7-2 3-3 9-4 8-3 7-2 3-2 6-8 12-8 11-4 6h-2l-2 4-5 7h-2v2l-5 5-12 13-15 15h-2l-1 3-8 6-5 5-11 9-5 4-8 3-9 3 17-17h2l2-4 11-11 6-9h2v-2h2l2-5h2l2-5 7-10 4-7 5-9-2 1v-11l-6-12-1-7-3-1 1-6 9-15 5-11h2l1-5 1-2h2l1-5 4-10 3-8 4-2 1-4 2 1 1-4 4-2 2-6h2l1-4h2z" fill="#73D4FE"/>
<path transform="translate(1094,756)" d="m0 0 5 5 15 16 14 14 11 9 12 11 13 10 15 10 11 7 18 10 16 8 28 11 18 6 24 6 21 4 27 3h50l44-5 28-6 24-7 24-8 21-8 10-4 9-4 29-14 14-8 4 1 8-1 5-2 1 1h8v3l-26 15-16 9-19 9h-2l-1 3-37 13-24 7-38 9-23 4-24 3-27 1h-22l-25-2-27-4-26-6-26-8-25-10-25-12-14-8-24-16-16-12-14-12-12-11-14-14-7-8-13-16z" fill="#7195DF"/>
<path transform="translate(1069,718)" d="m0 0 3 1 8 12 12 16 12 14 14 15 8 7 10 9 17 13 21 14 24 14 24 11 25 9 17 5 30 7 21 3 9 1 34 1 30-2 20-3 14-3 16-4 18-7 20-9 18-9 7-2 10-5 5-2 12-5 10-5 6-2 4 1 6-2 3 1v2l-7 6h-2v2l-10 6-10 7-9 6-9 4-12 6-25 11-30 10-29 6-24 3-14 1h-39l-37-5-14-3-20-5-23-8-9-3-13-6-19-9-17-10-14-9-19-14-14-12-13-12-8-7-7-8-12-13-9-11-4-1-10-15-6-10z" fill="#2B64D6"/>
<path transform="translate(1512,459)" d="m0 0h16l36 1 14 4 11 7 6 8 4 11v15l-4 10-3 3-1-4-3-9-4-9-6-7-7-8-9-3-20 1h-14l-16-2-10-3-4-9-1 69 66-1 14-3-1 2-11 3-6 1h-62l-2-1v-72l1-3z" fill="#6DE0FE"/>
<path transform="translate(1180,233)" d="m0 0 4 1h-2l-1 3-11 7 9-5 8-5 4-1-1 3-11 7-19 13-10 9-16 14-7 8-10 9-19 19-11 14-9 12-12 18-2-2 12-22 4-6 4-2 6-9 11-14 11-12 9-10 13-13 8-7 13-11 12-9z" fill="#71D4FE"/>
<path transform="translate(1676,790)" d="m0 0 3 1-4 2-4 4-11 8-5 3-14 9-13 8-14 8-28 14-15 7-10 4-3-1 17-8 14-8 8-4 22-13h2l1-3 8-4 9-6 7-4 11-8 10-5 7-3z" fill="#95B4ED"/>
<path transform="translate(1069,718)" d="m0 0 3 1 8 12 12 16v3l-4-4h-3l-10-15-6-10z" fill="#2E6EDD"/>
<path transform="translate(1074,339)" d="m0 0 1 2-2 8-7 10-2-2z" fill="#4BB3FD"/>
<path transform="translate(1136,444)" d="m0 0v3l-18 18-2-1 4-5 5-5 5-4 5-5z" fill="#BBE6FD"/>
<path transform="translate(1180,233)" d="m0 0 4 1h-2l-1 3-9 6-2-1 1-3z" fill="#71D9FE"/>
</svg>
